<svg id="圖層_1" data-name="圖層 1" xmlns="http://www.w3.org/2000/svg" xmlns:xlink="http://www.w3.org/1999/xlink" viewBox="0 0 133.2 145.84"><defs><style>.cls-1{fill:#fff;opacity:0;}.cls-2{fill:url(#未命名漸層_12);}.cls-3{fill:#8dc98f;}</style><linearGradient id="未命名漸層_12" x1="699.18" y1="188.84" x2="699.18" y2="255.68" gradientUnits="userSpaceOnUse"><stop offset="0" stop-color="#88cdc7"/><stop offset="1" stop-color="#00b4ba"/></linearGradient></defs><rect class="cls-1" width="133.2" height="145.84"/><path class="cls-2" d="M737.88,207.36H725.62a35.68,35.68,0,0,1-52.88,0H660.48a20,20,0,1,0,0,39.93h18.74v20a20,20,0,1,0,39.93,0v-20h18.73a20,20,0,1,0,0-39.93Z" transform="translate(-632.58 -150.4)"/><path class="cls-3" d="M701.19,196.45l18.72-1a24.07,24.07,0,0,1-23.08,11.78l.55-7.12A4.17,4.17,0,0,0,701.19,196.45Z" transform="translate(-632.58 -150.4)"/><path class="cls-3" d="M692.87,196a4.18,4.18,0,0,0,3.48,4.12l-.54,7a24,24,0,0,1-20.16-19.06L693,195A3.75,3.75,0,0,0,692.87,196Z" transform="translate(-632.58 -150.4)"/><path class="cls-3" d="M708.37,178.49a4.11,4.11,0,0,0,2.37-.74l11,13.81a23,23,0,0,1-1.24,2.84l-19.31,1a4.15,4.15,0,0,0-1.63-2.79l7.37-14.41A4.1,4.1,0,0,0,708.37,178.49Z" transform="translate(-632.58 -150.4)"/><path class="cls-3" d="M722.12,190.4,711.5,177.05a4.09,4.09,0,0,0,1-2.74,4.15,4.15,0,0,0-.44-1.83l6.14-3.7A24,24,0,0,1,722.12,190.4Z" transform="translate(-632.58 -150.4)"/><path class="cls-3" d="M685.64,177.73a4.33,4.33,0,0,0,1.49-.28l7.61,15a4.13,4.13,0,0,0-1.39,1.57l-17.91-7.2a24.13,24.13,0,0,1,.34-8.8l6.15-2.63A4.16,4.16,0,0,0,685.64,177.73Z" transform="translate(-632.58 -150.4)"/><path class="cls-3" d="M698.66,192.11a4.09,4.09,0,0,0-1.61-.32,4.17,4.17,0,0,0-1.38.25L688,177a4.2,4.2,0,0,0,1.75-3l14.41.48a4.17,4.17,0,0,0,1.8,3.32Z" transform="translate(-632.58 -150.4)"/><path class="cls-3" d="M711.54,171.62a4.11,4.11,0,0,0-3.17-1.49,4.19,4.19,0,0,0-4.09,3.28l-14.52-.48a4.18,4.18,0,0,0-1.85-2.89l5.23-9.91a24,24,0,0,1,23,6.25c.51.52,1,1.05,1.45,1.59Z" transform="translate(-632.58 -150.4)"/><path class="cls-3" d="M687,169.6a4.24,4.24,0,0,0-1.34-.24,4.19,4.19,0,0,0-4.18,4.19,4,4,0,0,0,.11.92l-5.48,2.34a24,24,0,0,1,15.68-16.28Z" transform="translate(-632.58 -150.4)"/></svg>